# xmcd CD database file
#
# Track frame offsets:
#	150
#	21217
#	48102
#
# Disc length: 918 seconds
#
# Revision: 0
# Processed by: cddbd v1.5PL3 Copyright (c) Steve Scherf et al.
# Submitted via: CDex 1.51
#
DISCID=19039403
DTITLE=篠原涼子 - リズムとルール
DYEAR=2000
DGENRE=JPop
TTITLE0=リズムとルール
TTITLE1=夜空に隠して
TTITLE2=リズムとルール -off vocal version-
EXTD=YEAR: 2000
EXTT0=
EXTT1=
EXTT2=
PLAYORDER=
